<svg width="12" height="10" viewBox="0 0 12 10" fill="none" xmlns="http://www.w3.org/2000/svg">
<path d="M9.43845 4.78584H10.6889L9.78318 3.92368L6.56312 0.858602C6.51857 0.816174 6.49838 0.763994 6.49838 0.715059C6.49838 0.666125 6.51857 0.613944 6.56312 0.571517C6.6085 0.528299 6.67505 0.5 6.74925 0.5C6.82345 0.5 6.88999 0.528299 6.93537 0.571517L11.4349 4.85646L11.4353 4.85689C11.4575 4.87799 11.4738 4.90171 11.4844 4.92602C11.4949 4.95026 11.5 4.97532 11.5 5C11.5 5.02468 11.4949 5.04974 11.4844 5.07398C11.4738 5.09829 11.4575 5.12202 11.4353 5.14311L11.4349 5.14354L6.93537 9.42848C6.88999 9.4717 6.82345 9.5 6.74925 9.5C6.67504 9.5 6.6085 9.4717 6.56312 9.42848C6.51857 9.38606 6.49838 9.33388 6.49838 9.28494C6.49838 9.23601 6.51857 9.18383 6.56312 9.1414L9.78318 6.07632L10.6889 5.21416H9.43845H0.749916C0.675965 5.21416 0.609664 5.18595 0.564461 5.14291C0.520087 5.10065 0.5 5.0487 0.5 5C0.5 4.9513 0.520087 4.89935 0.564461 4.8571C0.609665 4.81405 0.675967 4.78584 0.749916 4.78584H9.43845Z" fill="white" stroke="white"/>
</svg>
